<svg t="1594791101823" class="icon" viewBox="0 0 1024 1024" version="1.1" xmlns="http://www.w3.org/2000/svg" p-id="43766" width="200" height="200"><path d="M815.588007 209.85679c81.631041 81.269841 123.891358 184.21164 127.142152 308.825397-3.250794 118.834568-45.511111 218.164374-127.142152 298.711817-81.269841 80.547443-184.21164 122.446561-308.825397 125.697354-118.834568-3.250794-218.164374-45.149912-298.711817-125.697354-80.547443-80.547443-122.446561-179.877249-125.697354-298.711817 3.250794-124.252557 45.149912-227.555556 125.697354-308.825397 80.547443-81.631041 179.877249-123.891358 298.711817-127.142152C631.376367 85.965432 734.318166 128.22575 815.588007 209.85679zM666.412698 560.942504c-3.973192-8.307584-13.364374-12.641975-28.895944-12.641975l-89.577425 0L547.93933 279.929453c0-5.05679-1.444797-9.391182-4.695591-13.003175-3.250794-3.611993-7.223986-5.417989-12.641975-5.417989l-36.481129 0c-4.334392 0-8.668783 1.805996-11.919577 5.417989-3.611993 3.611993-5.417989 7.946384-5.417989 13.003175l0 268.371076-89.577425 0c-15.53157 0-24.922751 4.334392-28.895944 12.641975-3.973192 8.307584-1.444797 18.421164 7.585185 29.979541l113.416578 148.091711c9.752381 11.558377 20.58836 17.337566 32.869136 17.337566s23.116755-5.779189 32.869136-17.337566l113.416578-148.091711C667.857496 579.363668 670.385891 569.250088 666.412698 560.942504z" p-id="43767" fill="#707070"></path></svg>