<svg t="1594791285001" class="icon" viewBox="0 0 1024 1024" version="1.1" xmlns="http://www.w3.org/2000/svg" p-id="47201" width="200" height="200"><path d="M912 411.9c0 7.7-2.8 14.4-8.5 20.1L674.9 660.7c-5.7 5.7-12.4 8.5-20.1 8.5s-14.4-2.8-20.1-8.5c-5.7-5.7-8.5-12.3-8.5-20.1V526.1H526.1c-29.2 0-55.3 1-78.3 2.7-23.1 1.8-46 5-68.8 9.6-22.7 4.6-42.5 10.9-59.3 18.9-16.8 8.1-32.5 18.4-47.1 31-14.5 12.7-26.4 27.7-35.7 45.1-9.2 17.4-16.4 38-21.7 61.9-5.2 23.8-7.8 50.7-7.8 80.9 0 16.3 0.8 34.6 2.2 54.9 0 1.8 0.4 5.3 1.2 10.5 0.8 5.2 1.2 9.1 1.2 11.8 0 4.5-1.3 8.2-3.7 11.2-2.5 3-6 4.5-10.5 4.5-4.8 0-8.9-2.5-12.5-7.6-2-2.7-4-6-5.9-9.9-1.8-3.8-3.7-8.4-6-13.5-2.2-5.1-3.7-8.7-4.7-10.7-37.9-84.6-56.7-151.7-56.7-201.2 0-59.2 7.9-108.8 23.7-148.7C184 357.7 314.1 297.7 526.3 297.7h100V183.3c0-7.7 2.8-14.4 8.5-20.1s12.3-8.5 20.1-8.5c7.7 0 14.4 2.8 20.1 8.5l228.6 228.6c5.5 5.8 8.4 12.4 8.4 20.1z" p-id="47202" fill="#707070"></path></svg>